<svg width="28.000000" height="26.000000" viewBox="0 0 28 26" fill="none" xmlns="http://www.w3.org/2000/svg" xmlns:xlink="http://www.w3.org/1999/xlink">
	<desc>
			Created with Pixso.
	</desc>
	<defs/>
	<rect id="Messages, Chat/Messages, Chat" rx="-0.500000" width="23.000000" height="23.000000" transform="translate(3.500000 1.500000)" fill="#FFFFFF" fill-opacity="0"/>
	<path id="Path" d="M21 22.5L17.5 22.5C16.53 22.5 15.75 21.71 15.75 20.75L15.75 16.08C15.75 15.11 16.53 14.33 17.5 14.33L24.5 14.33C25.46 14.33 26.25 15.11 26.25 16.08L26.25 20.75C26.25 21.71 25.46 22.5 24.5 22.5L23.62 22.5L23.62 24.25L21 22.5Z" fill="#EEEEFF" fill-opacity="1.000000" fill-rule="evenodd"/>
	<path id="Path" d="M17.5 22.5C16.53 22.5 15.75 21.71 15.75 20.75L15.75 16.08C15.75 15.11 16.53 14.33 17.5 14.33L24.5 14.33C25.46 14.33 26.25 15.11 26.25 16.08L26.25 20.75C26.25 21.71 25.46 22.5 24.5 22.5L23.62 22.5L23.62 24.25L21 22.5L17.5 22.5Z" stroke="#434B74" stroke-opacity="1.000000" stroke-width="1.500000" stroke-linejoin="round"/>
	<path id="Path" d="M12 18L18 18C19.65 18 21 16.65 21 15L21 7C21 5.34 19.65 4 18 4L6 4C4.34 4 3 5.34 3 7L3 15C3 16.65 4.34 18 6 18L7.5 18L7.5 21L12 18Z" fill="#FFF1CB" fill-opacity="1.000000" fill-rule="evenodd"/>
	<path id="Path" d="M18 18C19.65 18 21 16.65 21 15L21 7C21 5.34 19.65 4 18 4L6 4C4.34 4 3 5.34 3 7L3 15C3 16.65 4.34 18 6 18L7.5 18L7.5 21L12 18L18 18Z" stroke="#434B74" stroke-opacity="1.000000" stroke-width="1.500000" stroke-linejoin="round"/>
	<path id="Path" d="M12.67 11.67C12.57 11.77 12.42 11.77 12.32 11.67C12.22 11.57 12.22 11.42 12.32 11.32C12.42 11.22 12.57 11.22 12.67 11.32C12.77 11.42 12.77 11.57 12.67 11.67Z" stroke="#434B74" stroke-opacity="1.000000" stroke-width="1.500000" stroke-linejoin="round"/>
	<path id="Path" d="M16.67 11.67C16.57 11.77 16.42 11.77 16.32 11.67C16.22 11.57 16.22 11.42 16.32 11.32C16.42 11.22 16.57 11.22 16.67 11.32C16.77 11.42 16.77 11.57 16.67 11.67Z" stroke="#434B74" stroke-opacity="1.000000" stroke-width="1.500000" stroke-linejoin="round"/>
	<path id="Path" d="M8.67 11.67C8.57 11.77 8.42 11.77 8.32 11.67C8.22 11.57 8.22 11.42 8.32 11.32C8.42 11.22 8.57 11.22 8.67 11.32C8.77 11.42 8.77 11.57 8.67 11.67Z" stroke="#434B74" stroke-opacity="1.000000" stroke-width="1.500000" stroke-linejoin="round"/>
</svg>
