<svg width="80.000000" height="80.000000" viewBox="0 0 80 80" fill="none" xmlns="http://www.w3.org/2000/svg" xmlns:xlink="http://www.w3.org/1999/xlink">
	<desc>
			Created with Pixso.
	</desc>
	<defs>
		<linearGradient x1="0.466492" y1="75.775650" x2="77.186172" y2="-0.944031" id="paint_linear_1_715_0" gradientUnits="userSpaceOnUse">
			<stop offset="0.100000" stop-color="#DE1CFF"/>
			<stop offset="1.000000" stop-color="#32D2FF"/>
		</linearGradient>
		<linearGradient x1="4.226692" y1="79.536575" x2="80.946365" y2="2.816895" id="paint_linear_1_716_0" gradientUnits="userSpaceOnUse">
			<stop offset="0.100000" stop-color="#DE1CFF"/>
			<stop offset="1.000000" stop-color="#32D2FF"/>
		</linearGradient>
		<linearGradient x1="2.346474" y1="77.655853" x2="79.066193" y2="0.936142" id="paint_linear_1_717_0" gradientUnits="userSpaceOnUse">
			<stop offset="0.100000" stop-color="#DE1CFF"/>
			<stop offset="1.000000" stop-color="#32D2FF"/>
		</linearGradient>
	</defs>
	<path id="_x31__1_" d="M47.2 49.58C47.1 47.81 46.36 46.15 45.1 44.89C43.74 43.52 41.93 42.77 40 42.77C36.57 42.77 33.36 41.44 30.96 39.02C29.46 37.52 28.37 35.68 27.76 33.68C17.33 35.29 12.77 38.55 12.77 40C12.77 41.55 18.07 45.22 30.32 46.66C31.72 46.82 32.77 48.01 32.77 49.42L32.77 49.99C32.77 53.97 36.01 57.21 39.99 57.21C41.92 57.21 43.73 56.46 45.09 55.1C46.46 53.73 47.21 51.92 47.21 49.99L47.21 49.72C47.21 49.67 47.21 49.63 47.2 49.58Z" fill="url(#paint_linear_1_715_0)" fill-opacity="1.000000" fill-rule="nonzero"/>
	<path id="_x32__1_" d="M49.67 33.33C48.27 33.17 47.22 31.98 47.22 30.57L47.22 30C47.22 28.07 46.47 26.26 45.11 24.9C43.74 23.53 41.93 22.78 40 22.78C38.06 22.78 36.25 23.53 34.9 24.89C33.52 26.26 32.77 28.07 32.77 30L32.78 30.45C32.9 32.21 33.65 33.86 34.89 35.1C36.25 36.47 38.06 37.22 40 37.22C43.42 37.22 46.63 38.55 49.03 40.97C50.53 42.48 51.62 44.31 52.23 46.31C62.66 44.7 67.22 41.44 67.22 40C67.22 38.44 61.92 34.77 49.67 33.33Z" fill="url(#paint_linear_1_716_0)" fill-opacity="1.000000" fill-rule="nonzero"/>
	<path id="_x33__1_" d="M40 0C17.91 0 0 17.91 0 40C0 62.08 17.91 80 40 80C62.08 80 80 62.08 80 40C80 17.91 62.09 0 40 0ZM60 17.22C61.53 17.22 62.77 18.46 62.77 20C62.77 21.53 61.53 22.77 60 22.77C58.46 22.77 57.22 21.53 57.22 20C57.22 18.46 58.46 17.22 60 17.22ZM20 62.78C18.46 62.78 17.22 61.53 17.22 60C17.22 58.46 18.46 57.22 20 57.22C21.53 57.22 22.77 58.46 22.77 60C22.77 61.53 21.53 62.78 20 62.78ZM52.64 51.87C52.24 54.58 50.99 57.07 49.02 59.03C46.62 61.44 43.42 62.78 40 62.78C33.59 62.78 28.26 58.03 27.36 51.87C14.69 50.01 7.22 45.64 7.22 40C7.22 34.36 14.69 29.99 27.36 28.12C27.75 25.41 29 22.92 30.98 20.96C33.37 18.55 36.58 17.22 40 17.22C43.42 17.22 46.63 18.55 49.04 20.97C51 22.92 52.25 25.41 52.64 28.12C65.3 29.98 72.78 34.35 72.78 40C72.77 45.64 65.3 50.01 52.64 51.87Z" fill="url(#paint_linear_1_717_0)" fill-opacity="1.000000" fill-rule="nonzero"/>
</svg>
