<svg width="16.000000" height="16.000000" viewBox="0 0 16 16" fill="none" xmlns="http://www.w3.org/2000/svg" xmlns:xlink="http://www.w3.org/1999/xlink">
	<desc>
			Created with Pixso.
	</desc>
	<defs/>
	<path id="Path" d="M8.01 10.74C9.55 10.74 10.95 11.36 12 12.35C10.95 13.37 9.53 14 7.98 14C6.44 14 5.04 13.38 4 12.38C5.04 11.37 6.46 10.74 8.01 10.74Z" stroke="#79747F" stroke-opacity="1.000000" stroke-width="1.000000" stroke-linejoin="round"/>
	<path id="Path" d="M2.65 10.68C2.24 9.87 2 8.96 2 8C2 4.68 4.68 2 8 2C11.31 2 14 4.68 14 8C14 8.96 13.75 9.87 13.34 10.68" stroke="#79747F" stroke-opacity="1.000000" stroke-width="1.000000" stroke-linejoin="round" stroke-linecap="round"/>
	<path id="Path" d="M9.41 8.08C8.63 8.86 7.36 8.86 6.58 8.08C5.8 7.29 5.8 6.03 6.58 5.25C7.36 4.47 8.63 4.47 9.41 5.25C10.19 6.03 10.19 7.29 9.41 8.08Z" stroke="#79747F" stroke-opacity="1.000000" stroke-width="1.000000" stroke-linejoin="round"/>
</svg>
