<svg width="24.000000" height="24.000000" viewBox="0 0 24 24" fill="none" xmlns="http://www.w3.org/2000/svg" xmlns:xlink="http://www.w3.org/1999/xlink">
	<desc>
			Created with Pixso.
	</desc>
	<defs/>
	<path id="Path" d="M12 10L12 4.86" stroke="#323854" stroke-opacity="1.000000" stroke-width="1.500000" stroke-linejoin="round" stroke-linecap="round"/>
	<path id="Path" d="M8 15.17C6.79 15.06 5.58 15.3 4.5 15.87C4.19 16.05 3.81 16.05 3.5 15.87C3.19 15.69 3 15.36 3 15.01L3 5.79C2.99 5.15 3.29 4.55 3.81 4.17C6.34 2.37 9.8 2.66 12 4.86C14.19 2.66 17.65 2.37 20.18 4.17C20.7 4.55 21 5.15 21 5.79L21 9.99" stroke="#323854" stroke-opacity="1.000000" stroke-width="1.500000" stroke-linejoin="round" stroke-linecap="round"/>
	<path id="Path" d="M12 14.25L12 20.5C12 20.77 12.22 21 12.5 21L20.5 21C20.77 21 21 20.77 21 20.5L21 14.25" stroke="#323854" stroke-opacity="1.000000" stroke-width="1.500000" stroke-linejoin="round" stroke-linecap="round"/>
	<path id="Path" d="M17.95 21L17.95 17.5C17.95 17.22 17.72 17 17.45 17L15.45 17C15.17 17 14.95 17.22 14.95 17.5L14.95 21" stroke="#323854" stroke-opacity="1.000000" stroke-width="1.500000" stroke-linejoin="round" stroke-linecap="round"/>
	<path id="Path" d="M22 15L16.79 11.1C16.62 10.96 16.37 10.96 16.2 11.1L11 15" stroke="#323854" stroke-opacity="1.000000" stroke-width="1.500000" stroke-linejoin="round" stroke-linecap="round"/>
</svg>
