<svg width="148.002686" height="57.997406" viewBox="0 0 148.003 57.9974" fill="none" xmlns="http://www.w3.org/2000/svg" xmlns:xlink="http://www.w3.org/1999/xlink">
	<desc>
			Created with Pixso.
	</desc>
	<defs>
		<linearGradient x1="0.343899" y1="54.934814" x2="56.933960" y2="-0.684467" id="paint_linear_6_1069_0" gradientUnits="userSpaceOnUse">
			<stop offset="0.100000" stop-color="#DE1CFF"/>
			<stop offset="1.000000" stop-color="#32D2FF"/>
		</linearGradient>
		<linearGradient x1="3.117779" y1="57.661068" x2="59.707844" y2="2.041805" id="paint_linear_6_1070_0" gradientUnits="userSpaceOnUse">
			<stop offset="0.100000" stop-color="#DE1CFF"/>
			<stop offset="1.000000" stop-color="#32D2FF"/>
		</linearGradient>
		<linearGradient x1="1.730801" y1="56.297974" x2="58.320889" y2="0.678661" id="paint_linear_6_1071_0" gradientUnits="userSpaceOnUse">
			<stop offset="0.100000" stop-color="#DE1CFF"/>
			<stop offset="1.000000" stop-color="#32D2FF"/>
		</linearGradient>
	</defs>
	<path id="_x31__1_" d="M34.82 35.94C34.74 34.66 34.19 33.45 33.26 32.55C32.26 31.55 30.92 31.01 29.5 31.01C26.98 31.01 24.61 30.04 22.83 28.29C21.73 27.2 20.92 25.87 20.48 24.42C12.78 25.59 9.42 27.95 9.42 28.99C9.42 30.12 13.33 32.78 22.36 33.82C23.39 33.94 24.17 34.8 24.17 35.82L24.17 36.24C24.17 39.13 26.56 41.48 29.5 41.48C30.92 41.48 32.26 40.93 33.26 39.94C34.27 38.95 34.82 37.64 34.82 36.24L34.82 36.04C34.82 36.01 34.82 35.98 34.82 35.94Z" fill="url(#paint_linear_6_1069_0)" fill-opacity="1.000000" fill-rule="nonzero"/>
	<path id="_x32__1_" d="M36.64 24.16C35.61 24.04 34.83 23.18 34.83 22.16L34.83 21.75C34.83 20.35 34.27 19.03 33.27 18.05C32.26 17.05 30.93 16.51 29.5 16.51C28.08 16.51 26.74 17.06 25.74 18.04C24.73 19.03 24.17 20.35 24.17 21.75L24.18 22.08C24.27 23.35 24.82 24.54 25.74 25.44C26.74 26.44 28.08 26.98 29.5 26.98C32.02 26.98 34.39 27.95 36.17 29.7C37.27 30.79 38.08 32.12 38.52 33.57C46.22 32.4 49.58 30.04 49.58 29C49.58 27.87 45.67 25.21 36.64 24.16Z" fill="url(#paint_linear_6_1070_0)" fill-opacity="1.000000" fill-rule="nonzero"/>
	<path id="_x33__1_" d="M29.5 0C13.21 0 0 12.98 0 28.99C0 45.01 13.21 57.99 29.5 57.99C45.79 57.99 59 45.01 59 28.99C59 12.98 45.8 0 29.5 0ZM44.25 12.48C45.38 12.48 46.3 13.38 46.3 14.49C46.3 15.61 45.38 16.51 44.25 16.51C43.12 16.51 42.2 15.61 42.2 14.49C42.2 13.38 43.12 12.48 44.25 12.48ZM14.75 45.51C13.62 45.51 12.7 44.61 12.7 43.5C12.7 42.38 13.62 41.48 14.75 41.48C15.88 41.48 16.8 42.38 16.8 43.5C16.8 44.61 15.88 45.51 14.75 45.51ZM38.83 37.6C38.53 39.57 37.61 41.38 36.16 42.8C34.39 44.54 32.02 45.51 29.5 45.51C24.77 45.51 20.85 42.07 20.18 37.61C10.84 36.26 5.32 33.09 5.32 29C5.32 24.91 10.84 21.74 20.18 20.39C20.47 18.42 21.39 16.61 22.85 15.19C24.61 13.45 26.98 12.48 29.5 12.48C32.03 12.48 34.4 13.45 36.17 15.2C37.61 16.61 38.54 18.42 38.83 20.38C48.17 21.73 53.68 24.9 53.68 28.99C53.68 33.08 48.16 36.25 38.83 37.6Z" fill="url(#paint_linear_6_1071_0)" fill-opacity="1.000000" fill-rule="nonzero"/>
	<path id="S_1_" d="M68.21 24.94C67.84 24.68 67.57 24.24 67.57 23.72C67.57 22.89 68.26 22.24 69.11 22.24C69.56 22.24 69.85 22.37 70.06 22.52C71.59 23.72 73.23 24.4 75.24 24.4C77.25 24.4 78.52 23.46 78.52 22.11L78.52 22.06C78.52 20.76 77.78 20.06 74.34 19.28C70.4 18.34 68.18 17.2 68.18 13.84L68.18 13.79C68.18 10.68 70.82 8.52 74.5 8.52C76.82 8.52 78.7 9.12 80.37 10.21C80.74 10.42 81.08 10.86 81.08 11.48C81.08 12.31 80.39 12.96 79.55 12.96C79.23 12.96 78.97 12.88 78.7 12.73C77.28 11.82 75.9 11.35 74.45 11.35C72.54 11.35 71.43 12.31 71.43 13.51L71.43 13.56C71.43 14.96 72.28 15.59 75.85 16.42C79.76 17.35 81.77 18.73 81.77 21.75L81.77 21.8C81.77 25.2 79.05 27.23 75.16 27.23C72.65 27.23 70.27 26.45 68.21 24.94Z" fill="#353A51" fill-opacity="1.000000" fill-rule="nonzero"/>
	<path id="i_3_" d="M84.67 14.68C84.67 13.79 85.36 13.09 86.26 13.09C87.16 13.09 87.87 13.79 87.87 14.68L87.87 25.54C87.87 26.42 87.16 27.1 86.26 27.1C85.39 27.1 84.67 26.42 84.67 25.54L84.67 14.68Z" fill="#353A51" fill-opacity="1.000000" fill-rule="nonzero"/>
	<path id="_x2E__3_" d="M84.43 10.05C84.43 9.11 85.23 8.52 86.26 8.52C87.29 8.52 88.08 9.11 88.08 10.05L88.08 10.21C88.08 11.14 87.29 11.76 86.26 11.76C85.23 11.76 84.43 11.14 84.43 10.21L84.43 10.05Z" fill="#32D2FF" fill-opacity="1.000000" fill-rule="nonzero"/>
	<path id="r_3_" d="M91.3 14.68C91.3 13.79 91.99 13.09 92.88 13.09C93.78 13.09 94.5 13.79 94.5 14.68L94.5 16.08C95.24 14.36 96.61 13.07 98.01 13.07C99.02 13.07 99.6 13.72 99.6 14.62C99.6 15.46 99.05 16 98.33 16.13C96.06 16.52 94.5 18.24 94.5 21.49L94.5 25.54C94.5 26.4 93.78 27.1 92.88 27.1C92.01 27.1 91.3 26.42 91.3 25.54L91.3 14.68Z" fill="#353A51" fill-opacity="1.000000" fill-rule="nonzero"/>
	<path id="i_2_" d="M101.48 14.68C101.48 13.79 102.17 13.09 103.06 13.09C103.96 13.09 104.68 13.79 104.68 14.68L104.68 25.54C104.68 26.42 103.96 27.1 103.06 27.1C102.19 27.1 101.48 26.42 101.48 25.54L101.48 14.68Z" fill="#353A51" fill-opacity="1.000000" fill-rule="nonzero"/>
	<path id="_x2E__2_" d="M101.24 10.05C101.24 9.11 102.04 8.52 103.07 8.52C104.1 8.52 104.89 9.11 104.89 10.05L104.89 10.21C104.89 11.14 104.1 11.76 103.07 11.76C102.04 11.76 101.24 11.14 101.24 10.21L101.24 10.05Z" fill="#32D2FF" fill-opacity="1.000000" fill-rule="nonzero"/>
	<path id="u_5_" d="M120.49 25.54C120.49 26.4 119.78 27.1 118.88 27.1C118 27.1 117.26 26.42 117.26 25.54L117.26 24.84C116.37 26.14 115.07 27.25 112.9 27.25C109.76 27.25 107.93 25.17 107.93 21.98L107.93 14.68C107.93 13.79 108.65 13.09 109.52 13.09C110.42 13.09 111.13 13.79 111.13 14.68L111.13 21.04C111.13 23.17 112.22 24.37 114.12 24.37C115.97 24.37 117.26 23.12 117.26 20.99L117.26 14.68C117.26 13.79 117.98 13.09 118.88 13.09C119.75 13.09 120.49 13.79 120.49 14.68L120.49 25.54Z" fill="#353A51" fill-opacity="1.000000" fill-rule="nonzero"/>
	<path id="s_1_" d="M123.44 25.59C123.1 25.41 122.83 25.02 122.83 24.5C122.83 23.8 123.39 23.23 124.13 23.23C124.39 23.23 124.63 23.3 124.81 23.41C126.16 24.29 127.57 24.73 128.83 24.73C130.21 24.73 131 24.16 131 23.25L131 23.2C131 22.14 129.52 21.77 127.88 21.28C125.82 20.71 123.52 19.87 123.52 17.25L123.52 17.2C123.52 14.6 125.71 13.02 128.49 13.02C129.97 13.02 131.53 13.43 132.88 14.13C133.32 14.37 133.64 14.78 133.64 15.33C133.64 16.06 133.06 16.6 132.32 16.6C132.06 16.6 131.9 16.55 131.69 16.45C130.55 15.87 129.39 15.51 128.41 15.51C127.17 15.51 126.45 16.08 126.45 16.86L126.45 16.92C126.45 17.93 127.96 18.34 129.6 18.86C131.63 19.49 133.93 20.4 133.93 22.87L133.93 22.92C133.93 25.8 131.66 27.23 128.75 27.23C126.98 27.23 125.05 26.68 123.44 25.59Z" fill="#353A51" fill-opacity="1.000000" fill-rule="nonzero"/>
	<path id="F_1_" d="M68.68 32.58C68.68 31.67 69.4 30.97 70.32 30.97L81.11 30.97C81.93 30.97 82.59 31.62 82.59 32.43C82.59 33.23 81.93 33.88 81.11 33.88L71.94 33.88L71.94 38.85L79.92 38.85C80.74 38.85 81.4 39.49 81.4 40.3C81.4 41.11 80.74 41.76 79.92 41.76L71.94 41.76L71.94 47.71C71.94 48.59 71.22 49.29 70.32 49.29C69.4 49.29 68.68 48.59 68.68 47.71L68.68 32.58Z" fill="#353A51" fill-opacity="1.000000" fill-rule="nonzero"/>
	<path id="u_4_" d="M96.65 47.73C96.65 48.59 95.94 49.29 95.04 49.29C94.17 49.29 93.43 48.61 93.43 47.73L93.43 47.03C92.53 48.33 91.23 49.45 89.07 49.45C85.92 49.45 84.1 47.37 84.1 44.17L84.1 36.87C84.1 35.98 84.81 35.28 85.68 35.28C86.58 35.28 87.3 35.98 87.3 36.87L87.3 43.24C87.3 45.37 88.38 46.56 90.28 46.56C92.13 46.56 93.43 45.31 93.43 43.18L93.43 36.87C93.43 35.98 94.14 35.28 95.04 35.28C95.91 35.28 96.65 35.98 96.65 36.87L96.65 47.73Z" fill="#353A51" fill-opacity="1.000000" fill-rule="nonzero"/>
	<path id="t_1_" d="M100.56 45.37L100.56 38.14L100.03 38.14C99.26 38.14 98.65 37.55 98.65 36.79C98.65 36.03 99.26 35.44 100.03 35.44L100.56 35.44L100.56 33.1C100.56 32.24 101.27 31.54 102.17 31.54C103.04 31.54 103.76 32.24 103.76 33.1L103.76 35.44L106.27 35.44C107.04 35.44 107.67 36.04 107.67 36.79C107.67 37.54 107.04 38.14 106.27 38.14L103.76 38.14L103.76 44.87C103.76 46.09 104.39 46.59 105.48 46.59C105.85 46.59 106.16 46.51 106.27 46.51C106.98 46.51 107.62 47.08 107.62 47.81C107.62 48.38 107.22 48.85 106.77 49.03C106.09 49.26 105.42 49.39 104.58 49.39C102.22 49.39 100.56 48.38 100.56 45.37Z" fill="#353A51" fill-opacity="1.000000" fill-rule="nonzero"/>
	<path id="u_3_" d="M122.17 47.73C122.17 48.59 121.46 49.29 120.56 49.29C119.69 49.29 118.95 48.61 118.95 47.73L118.95 47.03C118.05 48.33 116.75 49.45 114.59 49.45C111.44 49.45 109.62 47.37 109.62 44.17L109.62 36.87C109.62 35.98 110.33 35.28 111.2 35.28C112.1 35.28 112.82 35.98 112.82 36.87L112.82 43.24C112.82 45.37 113.9 46.56 115.8 46.56C117.65 46.56 118.95 45.31 118.95 43.18L118.95 36.87C118.95 35.98 119.66 35.28 120.56 35.28C121.43 35.28 122.17 35.98 122.17 36.87L122.17 47.73Z" fill="#353A51" fill-opacity="1.000000" fill-rule="nonzero"/>
	<path id="r_2_" d="M125.55 36.87C125.55 35.98 126.24 35.28 127.14 35.28C128.03 35.28 128.75 35.98 128.75 36.87L128.75 38.27C129.49 36.56 130.86 35.26 132.27 35.26C133.27 35.26 133.85 35.91 133.85 36.82C133.85 37.65 133.3 38.19 132.58 38.32C130.31 38.71 128.75 40.43 128.75 43.68L128.75 47.73C128.75 48.59 128.03 49.29 127.14 49.29C126.26 49.29 125.55 48.61 125.55 47.73L125.55 36.87Z" fill="#353A51" fill-opacity="1.000000" fill-rule="nonzero"/>
	<path id="e_1_" d="M141.7 49.47C137.66 49.47 134.54 46.59 134.54 42.35L134.54 42.3C134.54 38.38 137.37 35.15 141.36 35.15C145.8 35.15 148 38.74 148 41.91C148 42.79 147.31 43.42 146.49 43.42L137.74 43.42C138.08 45.65 139.7 46.9 141.76 46.9C143.11 46.9 144.17 46.43 145.06 45.7C145.3 45.52 145.51 45.42 145.88 45.42C146.6 45.42 147.15 45.96 147.15 46.69C147.15 47.08 146.97 47.42 146.73 47.65C145.46 48.77 143.87 49.47 141.7 49.47ZM144.88 41.34C144.66 39.31 143.45 37.73 141.33 37.73C139.38 37.73 138 39.21 137.71 41.34L144.88 41.34Z" fill="#353A51" fill-opacity="1.000000" fill-rule="nonzero"/>
</svg>
