<svg width="24.000000" height="24.000000" viewBox="0 0 24 24" fill="none" xmlns="http://www.w3.org/2000/svg" xmlns:xlink="http://www.w3.org/1999/xlink">
	<desc>
			Created with Pixso.
	</desc>
	<defs/>
	<rect id="Interface, Essential/Home" width="24.000000" height="24.000000" fill="#FFFFFF" fill-opacity="0"/>
	<path id="Vector" d="M11.56 2.38L1.56 9.38C1.22 9.62 1.14 10.08 1.38 10.43C1.58 10.71 1.93 10.82 2.25 10.7L2.25 19.39Q2.25 19.69 2.31 19.98Q2.36 20.22 2.46 20.46C2.6 20.79 2.8 21.08 3.05 21.33C3.3 21.59 3.6 21.78 3.92 21.92Q4.16 22.02 4.41 22.07Q4.69 22.14 5 22.14L9.75 22.14L9.75 20.64L9.75 15C9.75 14.83 9.78 14.66 9.84 14.51C9.91 14.36 10 14.23 10.11 14.11C10.23 14 10.36 13.91 10.51 13.84C10.66 13.78 10.83 13.75 11 13.75L13 13.75C13.17 13.75 13.33 13.78 13.48 13.84C13.63 13.91 13.76 14 13.88 14.11C13.99 14.23 14.08 14.36 14.15 14.51C14.21 14.66 14.25 14.83 14.25 15L14.25 22.14L18.99 22.14Q19.3 22.14 19.58 22.07Q19.83 22.02 20.07 21.92C20.39 21.78 20.69 21.59 20.94 21.33C21.19 21.08 21.39 20.79 21.53 20.46Q21.63 20.22 21.68 19.98Q21.75 19.69 21.75 19.39L21.75 10.7C22.06 10.82 22.41 10.71 22.61 10.43C22.85 10.08 22.77 9.62 22.43 9.38L12.43 2.38C12.14 2.18 11.85 2.18 11.56 2.38ZM20.25 9.69L12 3.91L3.75 9.69L3.75 10L3.75 19.39C3.75 19.56 3.78 19.72 3.84 19.87Q3.89 19.97 3.94 20.07Q4.02 20.18 4.11 20.27C4.23 20.39 4.36 20.48 4.51 20.54Q4.61 20.58 4.71 20.6Q4.85 20.64 5 20.64L8.25 20.64L8.25 15C8.25 14.62 8.32 14.27 8.46 13.92C8.6 13.6 8.8 13.3 9.05 13.05C9.3 12.8 9.6 12.6 9.92 12.46C10.27 12.32 10.62 12.25 11 12.25L13 12.25C13.37 12.25 13.72 12.32 14.07 12.46C14.39 12.6 14.69 12.8 14.94 13.05C15.19 13.3 15.39 13.6 15.53 13.92Q15.63 14.16 15.68 14.4Q15.75 14.69 15.75 15L15.75 20.64L18.99 20.64C19.16 20.64 19.33 20.61 19.48 20.54C19.63 20.48 19.76 20.39 19.88 20.27C19.99 20.16 20.08 20.02 20.15 19.87C20.21 19.72 20.25 19.56 20.25 19.39L20.25 9.69Z" fill="#323854" fill-opacity="1.000000" fill-rule="evenodd"/>
</svg>
