<svg width="24.000000" height="24.000000" viewBox="0 0 24 24" fill="none" xmlns="http://www.w3.org/2000/svg" xmlns:xlink="http://www.w3.org/1999/xlink">
	<desc>
			Created with Pixso.
	</desc>
	<defs>
		<clipPath id="clip6_1126">
			<rect id="Money/Wallet" rx="-0.500000" width="23.000000" height="23.000000" transform="translate(0.500000 0.500000)" fill="white" fill-opacity="0"/>
		</clipPath>
	</defs>
	<rect id="Money/Wallet" rx="-0.500000" width="23.000000" height="23.000000" transform="translate(0.500000 0.500000)" fill="#FFFFFF" fill-opacity="0"/>
	<g clip-path="url(#clip6_1126)">
		<path id="Path" d="M3.03 7.91L19 7.91C20.1 7.91 21 8.8 21 9.91L21 18.99C21 20.09 20.1 20.99 19 20.99L5 20.99C3.89 20.99 3 20.1 3 18.99L3 8.29C3 7.45 3.51 6.71 4.29 6.41L14.64 2.51C15.3 2.26 16 2.74 16 3.44L16 7.91" stroke="#323854" stroke-opacity="1.000000" stroke-width="1.500000" stroke-linejoin="round" stroke-linecap="round"/>
		<path id="Path" d="M15.62 14.5C15.62 14.7 15.79 14.87 16 14.87C16.2 14.87 16.37 14.7 16.37 14.5C16.37 14.29 16.2 14.12 15.99 14.12C15.79 14.12 15.62 14.29 15.62 14.5Z" stroke="#323854" stroke-opacity="1.000000" stroke-width="1.500000" stroke-linejoin="round"/>
	</g>
</svg>
