<svg width="24.000000" height="24.000000" viewBox="0 0 24 24" fill="none" xmlns="http://www.w3.org/2000/svg" xmlns:xlink="http://www.w3.org/1999/xlink">
	<desc>
			Created with Pixso.
	</desc>
	<defs/>
	<rect id="Emails/Calendar,Schedule" width="24.000000" height="24.000000" fill="#FFFFFF" fill-opacity="0"/>
	<path id="Path" d="M16 2L16 6" stroke="#323854" stroke-opacity="1.000000" stroke-width="1.500000" stroke-linejoin="round"/>
	<path id="Path" d="M8 2L8 6" stroke="#323854" stroke-opacity="1.000000" stroke-width="1.500000" stroke-linejoin="round"/>
	<path id="Path" d="M3 9L21 9" stroke="#323854" stroke-opacity="1.000000" stroke-width="1.500000" stroke-linejoin="round"/>
	<path id="Path" d="M5 4C3.89 4 3 4.89 3 6L3 19C3 20.1 3.89 21 5 21L19 21C20.1 21 21 20.1 21 19L21 6C21 4.89 20.1 4 19 4L5 4Z" stroke="#323854" stroke-opacity="1.000000" stroke-width="1.500000" stroke-linejoin="round"/>
	<path id="Path" d="M6.76 12.97C6.76 13.11 6.87 13.22 7.01 13.22C7.15 13.22 7.26 13.11 7.26 12.97C7.26 12.84 7.15 12.72 7.01 12.72C6.87 12.72 6.76 12.84 6.76 12.97Z" stroke="#323854" stroke-opacity="1.000000" stroke-width="1.500000" stroke-linejoin="round"/>
	<path id="Path" d="M11.76 12.97C11.76 13.11 11.87 13.22 12.01 13.22C12.15 13.22 12.26 13.11 12.26 12.97C12.26 12.84 12.15 12.72 12.01 12.72C11.87 12.72 11.76 12.84 11.76 12.97Z" stroke="#323854" stroke-opacity="1.000000" stroke-width="1.500000" stroke-linejoin="round"/>
	<path id="Path" d="M16.76 12.97C16.76 13.11 16.87 13.22 17.01 13.22C17.15 13.22 17.26 13.11 17.26 12.97C17.26 12.84 17.15 12.72 17.01 12.72C16.87 12.72 16.76 12.84 16.76 12.97Z" stroke="#323854" stroke-opacity="1.000000" stroke-width="1.500000" stroke-linejoin="round"/>
	<path id="Path" d="M6.76 16.97C6.76 17.11 6.87 17.22 7.01 17.22C7.15 17.22 7.26 17.11 7.26 16.97C7.26 16.84 7.15 16.72 7.01 16.72C6.87 16.72 6.76 16.84 6.76 16.97Z" stroke="#323854" stroke-opacity="1.000000" stroke-width="1.500000" stroke-linejoin="round"/>
	<path id="Path" d="M11.76 16.97C11.76 17.11 11.87 17.22 12.01 17.22C12.15 17.22 12.26 17.11 12.26 16.97C12.26 16.84 12.15 16.72 12.01 16.72C11.87 16.72 11.76 16.84 11.76 16.97Z" stroke="#323854" stroke-opacity="1.000000" stroke-width="1.500000" stroke-linejoin="round"/>
</svg>
